<?xml version="1.0" encoding="UTF-8" standalone="no"?>
<svg
   viewBox="0 0 1440 160"
   version="1.1"
   id="svg2"
   sodipodi:docname="main-bg.svg"
   width="1440"
   height="160"
   inkscape:version="1.3.2 (091e20ef0f, 2023-11-25, custom)"
   xmlns:inkscape="http://www.inkscape.org/namespaces/inkscape"
   xmlns:sodipodi="http://sodipodi.sourceforge.net/DTD/sodipodi-0.dtd"
   xmlns="http://www.w3.org/2000/svg"
   xmlns:svg="http://www.w3.org/2000/svg">
  <sodipodi:namedview
     id="namedview2"
     pagecolor="#ffffff"
     bordercolor="#000000"
     borderopacity="0.25"
     inkscape:showpageshadow="2"
     inkscape:pageopacity="0.0"
     inkscape:pagecheckerboard="0"
     inkscape:deskcolor="#d1d1d1"
     inkscape:zoom="0.42118056"
     inkscape:cx="929.53008"
     inkscape:cy="150.76669"
     inkscape:window-width="1920"
     inkscape:window-height="1015"
     inkscape:window-x="0"
     inkscape:window-y="0"
     inkscape:window-maximized="1"
     inkscape:current-layer="svg2" />
  <defs
     id="defs2">
    <linearGradient
       id="gradient"
       x1="0"
       y1="0"
       x2="607.15729"
       y2="0"
       gradientTransform="scale(2.3717082,0.26352315)"
       gradientUnits="userSpaceOnUse">
      <stop
         offset="0"
         style="stop-color:#594500;stop-opacity:1;"
         id="stop1" />
      <stop
         offset="1"
         style="stop-color:#8f3a09;stop-opacity:1;"
         id="stop2" />
    </linearGradient>
  </defs>
  <path
     fill="url(#gradient)"
     d="m 0,160 48,-10 c 48,-10 144,-30 240,-36.6875 96,-6.4375 192,-0.1875 288,3.375 96,3.3125 192,3.3125 288,-3.375 96,-6.4375 192,-20.1875 288,-30.000001 96,-10.187499 192,-16.437499 240,-20 L 1440,60 V 0 h -48 C 1344,0 1248,0 1152,0 1056,0 960,0 864,0 768,0 672,0 576,0 480,0 384,0 288,0 192,0 96,0 48,0 H 0 Z"
     id="path2"
     style="fill:url(#gradient);stroke-width:0.790569" />
</svg>
